<svg xmlns="http://www.w3.org/2000/svg" xmlns:xlink="http://www.w3.org/1999/xlink" width="500" zoomAndPan="magnify" viewBox="0 0 375 93.749996" height="125" preserveAspectRatio="xMidYMid meet" version="1.2"><defs><clipPath id="7983a6f298"><rect x="0" width="295" y="0" height="75"/></clipPath><clipPath id="182fa41a5f"><path d="M 83 57 L 288 57 L 288 93.5 L 83 93.5 Z M 83 57 "/></clipPath><clipPath id="5c6b24348f"><rect x="0" width="205" y="0" height="37"/></clipPath><clipPath id="ac2c80f10b"><path d="M 0.5 0 L 85 0 L 85 93.5 L 0.5 93.5 Z M 0.5 0 "/></clipPath><clipPath id="1a9975089e"><rect x="0" width="85" y="0" height="94"/></clipPath><clipPath id="ea47ab3e5c"><path d="M 287 57 L 370 57 L 370 93.5 L 287 93.5 Z M 287 57 "/></clipPath><clipPath id="8705672be4"><rect x="0" width="83" y="0" height="37"/></clipPath></defs><g id="f3e23a37d0"><g transform="matrix(1,0,0,1,77,0.000000000000013659)"><g clip-path="url(#7983a6f298)"><g style="fill:#ffffff;fill-opacity:1;"><g transform="translate(0.783356, 54.60365)"><path style="stroke:none" d="M 53.6875 -51.828125 L 53.6875 0 L 43.828125 0 L 18 -31.46875 L 18 0 L 6.140625 0 L 6.140625 -51.828125 L 16.0625 -51.828125 L 41.84375 -20.359375 L 41.84375 -51.828125 Z M 53.6875 -51.828125 "/></g></g><g style="fill:#ffffff;fill-opacity:1;"><g transform="translate(60.613632, 54.60365)"><path style="stroke:none" d="M 41.171875 -26.734375 L 52.125 -26.734375 L 52.125 -5.703125 C 49.3125 -3.578125 46.050781 -1.945312 42.34375 -0.8125 C 38.644531 0.320312 34.921875 0.890625 31.171875 0.890625 C 25.796875 0.890625 20.957031 -0.253906 16.65625 -2.546875 C 12.363281 -4.847656 8.992188 -8.035156 6.546875 -12.109375 C 4.109375 -16.179688 2.890625 -20.785156 2.890625 -25.921875 C 2.890625 -31.054688 4.109375 -35.65625 6.546875 -39.71875 C 8.992188 -43.789062 12.390625 -46.972656 16.734375 -49.265625 C 21.078125 -51.566406 25.960938 -52.71875 31.390625 -52.71875 C 35.929688 -52.71875 40.050781 -51.953125 43.75 -50.421875 C 47.457031 -48.890625 50.570312 -46.671875 53.09375 -43.765625 L 45.390625 -36.65625 C 41.691406 -40.550781 37.222656 -42.5 31.984375 -42.5 C 28.679688 -42.5 25.742188 -41.804688 23.171875 -40.421875 C 20.609375 -39.046875 18.609375 -37.097656 17.171875 -34.578125 C 15.742188 -32.054688 15.03125 -29.171875 15.03125 -25.921875 C 15.03125 -22.710938 15.742188 -19.847656 17.171875 -17.328125 C 18.609375 -14.804688 20.597656 -12.84375 23.140625 -11.4375 C 25.679688 -10.03125 28.582031 -9.328125 31.84375 -9.328125 C 35.289062 -9.328125 38.398438 -10.066406 41.171875 -11.546875 Z M 41.171875 -26.734375 "/></g></g><g style="fill:#ffffff;fill-opacity:1;"><g transform="translate(117.704155, 54.60365)"><path style="stroke:none" d="M 6.140625 -51.828125 L 18.140625 -51.828125 L 18.140625 -9.78125 L 44.125 -9.78125 L 44.125 0 L 6.140625 0 Z M 6.140625 -51.828125 "/></g></g><g style="fill:#ffffff;fill-opacity:1;"><g transform="translate(162.428761, 54.60365)"><path style="stroke:none" d="M 6.140625 -51.828125 L 18.140625 -51.828125 L 18.140625 0 L 6.140625 0 Z M 6.140625 -51.828125 "/></g></g><g style="fill:#ffffff;fill-opacity:1;"><g transform="translate(186.716291, 54.60365)"><path style="stroke:none" d="M 23.171875 0.890625 C 19.078125 0.890625 15.113281 0.335938 11.28125 -0.765625 C 7.457031 -1.878906 4.390625 -3.328125 2.078125 -5.109375 L 6.140625 -14.140625 C 8.367188 -12.515625 11.007812 -11.207031 14.0625 -10.21875 C 17.125 -9.226562 20.1875 -8.734375 23.25 -8.734375 C 26.65625 -8.734375 29.171875 -9.238281 30.796875 -10.25 C 32.429688 -11.269531 33.25 -12.617188 33.25 -14.296875 C 33.25 -15.523438 32.765625 -16.546875 31.796875 -17.359375 C 30.835938 -18.171875 29.601562 -18.820312 28.09375 -19.3125 C 26.59375 -19.8125 24.554688 -20.359375 21.984375 -20.953125 C 18.035156 -21.890625 14.800781 -22.828125 12.28125 -23.765625 C 9.769531 -24.703125 7.613281 -26.207031 5.8125 -28.28125 C 4.007812 -30.351562 3.109375 -33.117188 3.109375 -36.578125 C 3.109375 -39.585938 3.921875 -42.3125 5.546875 -44.75 C 7.179688 -47.195312 9.640625 -49.132812 12.921875 -50.5625 C 16.203125 -52 20.210938 -52.71875 24.953125 -52.71875 C 28.265625 -52.71875 31.5 -52.320312 34.65625 -51.53125 C 37.8125 -50.75 40.578125 -49.613281 42.953125 -48.125 L 39.25 -39.015625 C 34.457031 -41.734375 29.664062 -43.09375 24.875 -43.09375 C 21.519531 -43.09375 19.039062 -42.550781 17.4375 -41.46875 C 15.832031 -40.382812 15.03125 -38.953125 15.03125 -37.171875 C 15.03125 -35.390625 15.953125 -34.066406 17.796875 -33.203125 C 19.648438 -32.347656 22.476562 -31.5 26.28125 -30.65625 C 30.226562 -29.71875 33.460938 -28.78125 35.984375 -27.84375 C 38.503906 -26.90625 40.664062 -25.421875 42.46875 -23.390625 C 44.269531 -21.367188 45.171875 -18.628906 45.171875 -15.171875 C 45.171875 -12.210938 44.34375 -9.507812 42.6875 -7.0625 C 41.03125 -4.625 38.546875 -2.6875 35.234375 -1.25 C 31.929688 0.175781 27.910156 0.890625 23.171875 0.890625 Z M 23.171875 0.890625 "/></g></g><g style="fill:#ffffff;fill-opacity:1;"><g transform="translate(233.958505, 54.60365)"><path style="stroke:none" d="M 53.6875 -51.828125 L 53.6875 0 L 41.6875 0 L 41.6875 -21.25 L 18.140625 -21.25 L 18.140625 0 L 6.140625 0 L 6.140625 -51.828125 L 18.140625 -51.828125 L 18.140625 -31.390625 L 41.6875 -31.390625 L 41.6875 -51.828125 Z M 53.6875 -51.828125 "/></g></g></g></g><g clip-rule="nonzero" clip-path="url(#182fa41a5f)"><g transform="matrix(1,0,0,1,83,57)"><g clip-path="url(#5c6b24348f)"><g style="fill:#8c52ff;fill-opacity:1;"><g transform="translate(0.175137, 33.442748)"><path style="stroke:none" d="M 3.734375 0 C 3.242188 0 2.863281 -0.128906 2.59375 -0.390625 C 2.332031 -0.648438 2.203125 -1.023438 2.203125 -1.515625 L 2.203125 -19.53125 C 2.203125 -20.019531 2.332031 -20.394531 2.59375 -20.65625 C 2.863281 -20.914062 3.242188 -21.046875 3.734375 -21.046875 L 6.375 -21.046875 C 6.851562 -21.046875 7.226562 -20.914062 7.5 -20.65625 C 7.769531 -20.394531 7.90625 -20.019531 7.90625 -19.53125 L 7.90625 -4.640625 L 14.828125 -4.640625 C 15.328125 -4.640625 15.707031 -4.503906 15.96875 -4.234375 C 16.226562 -3.972656 16.359375 -3.597656 16.359375 -3.109375 L 16.359375 -1.515625 C 16.359375 -0.503906 15.847656 0 14.828125 0 Z M 3.734375 0 "/></g></g><g style="fill:#8c52ff;fill-opacity:1;"><g transform="translate(18.013057, 33.442748)"><path style="stroke:none" d="M 3.734375 0 C 3.242188 0 2.863281 -0.128906 2.59375 -0.390625 C 2.332031 -0.660156 2.203125 -1.035156 2.203125 -1.515625 L 2.203125 -19.53125 C 2.203125 -20.019531 2.332031 -20.394531 2.59375 -20.65625 C 2.863281 -20.914062 3.242188 -21.046875 3.734375 -21.046875 L 6.375 -21.046875 C 6.851562 -21.046875 7.226562 -20.914062 7.5 -20.65625 C 7.769531 -20.394531 7.90625 -20.019531 7.90625 -19.53125 L 7.90625 -1.515625 C 7.90625 -1.035156 7.769531 -0.660156 7.5 -0.390625 C 7.226562 -0.128906 6.851562 0 6.375 0 Z M 3.734375 0 "/></g></g><g style="fill:#8c52ff;fill-opacity:1;"><g transform="translate(29.238949, 33.442748)"><path style="stroke:none" d="M 20.34375 -1.515625 C 20.632812 -1.035156 20.707031 -0.660156 20.5625 -0.390625 C 20.414062 -0.128906 20.082031 0 19.5625 0 L 15.96875 0 C 15.5 0 15.109375 -0.117188 14.796875 -0.359375 C 14.484375 -0.597656 14.160156 -0.972656 13.828125 -1.484375 L 9.328125 -8.28125 L 7.90625 -6.671875 L 7.90625 -1.515625 C 7.90625 -1.035156 7.769531 -0.660156 7.5 -0.390625 C 7.226562 -0.128906 6.851562 0 6.375 0 L 3.734375 0 C 3.242188 0 2.863281 -0.128906 2.59375 -0.390625 C 2.332031 -0.660156 2.203125 -1.035156 2.203125 -1.515625 L 2.203125 -19.53125 C 2.203125 -20.019531 2.332031 -20.394531 2.59375 -20.65625 C 2.863281 -20.914062 3.242188 -21.046875 3.734375 -21.046875 L 6.375 -21.046875 C 6.851562 -21.046875 7.226562 -20.914062 7.5 -20.65625 C 7.769531 -20.394531 7.90625 -20.019531 7.90625 -19.53125 L 7.90625 -12.921875 L 13.5 -19.5625 C 13.925781 -20.101562 14.285156 -20.484375 14.578125 -20.703125 C 14.878906 -20.929688 15.253906 -21.046875 15.703125 -21.046875 L 19.375 -21.046875 C 19.894531 -21.046875 20.238281 -20.898438 20.40625 -20.609375 C 20.582031 -20.328125 20.5 -19.96875 20.15625 -19.53125 L 13.46875 -11.65625 Z M 20.34375 -1.515625 "/></g></g><g style="fill:#8c52ff;fill-opacity:1;"><g transform="translate(51.648345, 33.442748)"><path style="stroke:none" d="M 3.734375 0 C 3.242188 0 2.863281 -0.128906 2.59375 -0.390625 C 2.332031 -0.660156 2.203125 -1.035156 2.203125 -1.515625 L 2.203125 -19.53125 C 2.203125 -20.019531 2.332031 -20.394531 2.59375 -20.65625 C 2.863281 -20.914062 3.242188 -21.046875 3.734375 -21.046875 L 16.359375 -21.046875 C 16.835938 -21.046875 17.207031 -20.914062 17.46875 -20.65625 C 17.738281 -20.40625 17.875 -20.03125 17.875 -19.53125 L 17.875 -17.953125 C 17.875 -17.460938 17.738281 -17.082031 17.46875 -16.8125 C 17.207031 -16.550781 16.835938 -16.421875 16.359375 -16.421875 L 7.90625 -16.421875 L 7.90625 -12.734375 L 14.0625 -12.734375 C 14.539062 -12.734375 14.910156 -12.597656 15.171875 -12.328125 C 15.441406 -12.066406 15.578125 -11.695312 15.578125 -11.21875 L 15.578125 -9.890625 C 15.578125 -9.398438 15.441406 -9.019531 15.171875 -8.75 C 14.910156 -8.476562 14.539062 -8.34375 14.0625 -8.34375 L 7.90625 -8.34375 L 7.90625 -4.640625 L 16.453125 -4.640625 C 16.929688 -4.640625 17.304688 -4.503906 17.578125 -4.234375 C 17.847656 -3.972656 17.984375 -3.597656 17.984375 -3.109375 L 17.984375 -1.515625 C 17.984375 -1.023438 17.847656 -0.648438 17.578125 -0.390625 C 17.304688 -0.128906 16.929688 0 16.453125 0 Z M 3.734375 0 "/></g></g><g style="fill:#8c52ff;fill-opacity:1;"><g transform="translate(71.89064, 33.442748)"><path style="stroke:none" d="M 6.890625 0.390625 C 5.722656 0.390625 4.570312 0.179688 3.4375 -0.234375 C 2.3125 -0.648438 1.359375 -1.253906 0.578125 -2.046875 C -0.128906 -2.722656 -0.148438 -3.398438 0.515625 -4.078125 L 2.015625 -5.625 C 2.359375 -6.007812 2.6875 -6.203125 3 -6.203125 C 3.320312 -6.203125 3.671875 -6.03125 4.046875 -5.6875 C 4.816406 -5.007812 5.628906 -4.671875 6.484375 -4.671875 C 7.410156 -4.671875 8.125 -4.941406 8.625 -5.484375 C 9.132812 -6.035156 9.390625 -6.820312 9.390625 -7.84375 L 9.390625 -19.53125 C 9.390625 -20.019531 9.519531 -20.394531 9.78125 -20.65625 C 10.050781 -20.914062 10.425781 -21.046875 10.90625 -21.046875 L 13.5625 -21.046875 C 14.050781 -21.046875 14.425781 -20.914062 14.6875 -20.65625 C 14.957031 -20.394531 15.09375 -20.019531 15.09375 -19.53125 L 15.09375 -7.90625 C 15.09375 -5.195312 14.382812 -3.132812 12.96875 -1.71875 C 11.550781 -0.3125 9.523438 0.390625 6.890625 0.390625 Z M 6.890625 0.390625 "/></g></g><g style="fill:#8c52ff;fill-opacity:1;"><g transform="translate(90.155654, 33.442748)"><path style="stroke:none" d="M 22.375 -1.515625 C 22.59375 -1.035156 22.597656 -0.660156 22.390625 -0.390625 C 22.191406 -0.128906 21.832031 0 21.3125 0 L 17.84375 0 C 17.59375 0 17.390625 -0.0234375 17.234375 -0.078125 C 17.078125 -0.128906 16.9375 -0.238281 16.8125 -0.40625 C 16.695312 -0.570312 16.609375 -0.71875 16.546875 -0.84375 C 16.484375 -0.96875 16.390625 -1.191406 16.265625 -1.515625 L 15.484375 -3.46875 L 7.203125 -3.46875 L 6.375 -1.515625 C 6.257812 -1.222656 6.1875 -1.035156 6.15625 -0.953125 C 6.125 -0.878906 6.054688 -0.75 5.953125 -0.5625 C 5.847656 -0.382812 5.753906 -0.269531 5.671875 -0.21875 C 5.585938 -0.175781 5.472656 -0.128906 5.328125 -0.078125 C 5.191406 -0.0234375 5.023438 0 4.828125 0 L 1.546875 0 C 1.035156 0 0.675781 -0.128906 0.46875 -0.390625 C 0.269531 -0.660156 0.273438 -1.035156 0.484375 -1.515625 L 9.171875 -19.78125 C 9.648438 -20.75 10.351562 -21.234375 11.28125 -21.234375 L 11.625 -21.234375 C 12.53125 -21.234375 13.222656 -20.75 13.703125 -19.78125 Z M 8.75 -7.296875 L 14 -7.296875 L 11.4375 -13.765625 Z M 8.75 -7.296875 "/></g></g><g style="fill:#8c52ff;fill-opacity:1;"><g transform="translate(114.146874, 33.442748)"><path style="stroke:none" d="M 12.265625 0.390625 C 10.703125 0.390625 9.222656 0.113281 7.828125 -0.4375 C 6.441406 -1 5.253906 -1.757812 4.265625 -2.71875 C 3.285156 -3.6875 2.507812 -4.847656 1.9375 -6.203125 C 1.363281 -7.554688 1.078125 -9 1.078125 -10.53125 C 1.078125 -12.5625 1.566406 -14.410156 2.546875 -16.078125 C 3.523438 -17.753906 4.867188 -19.066406 6.578125 -20.015625 C 8.296875 -20.972656 10.191406 -21.453125 12.265625 -21.453125 C 15.015625 -21.453125 17.445312 -20.609375 19.5625 -18.921875 C 19.945312 -18.597656 20.140625 -18.238281 20.140625 -17.84375 C 20.140625 -17.457031 19.945312 -17.09375 19.5625 -16.75 L 18.046875 -15.359375 C 17.660156 -15.046875 17.3125 -14.898438 17 -14.921875 C 16.6875 -14.941406 16.3125 -15.085938 15.875 -15.359375 C 14.769531 -16.046875 13.632812 -16.390625 12.46875 -16.390625 C 10.863281 -16.390625 9.507812 -15.828125 8.40625 -14.703125 C 7.3125 -13.578125 6.765625 -12.175781 6.765625 -10.5 C 6.765625 -8.726562 7.320312 -7.28125 8.4375 -6.15625 C 9.550781 -5.03125 10.941406 -4.46875 12.609375 -4.46875 C 13.671875 -4.46875 14.800781 -4.726562 16 -5.25 L 16 -8 L 13.46875 -8 C 13.007812 -8 12.644531 -8.128906 12.375 -8.390625 C 12.113281 -8.660156 11.984375 -9.023438 11.984375 -9.484375 L 11.984375 -10.625 C 11.984375 -11.09375 12.113281 -11.457031 12.375 -11.71875 C 12.644531 -11.976562 13.007812 -12.109375 13.46875 -12.109375 L 19.5 -12.109375 C 19.96875 -12.109375 20.332031 -11.976562 20.59375 -11.71875 C 20.851562 -11.457031 20.984375 -11.082031 20.984375 -10.59375 L 20.984375 -3.5 C 20.984375 -3.039062 20.859375 -2.65625 20.609375 -2.34375 C 20.367188 -2.039062 20.007812 -1.765625 19.53125 -1.515625 C 18.914062 -1.171875 18.332031 -0.878906 17.78125 -0.640625 C 17.238281 -0.398438 16.460938 -0.171875 15.453125 0.046875 C 14.441406 0.273438 13.378906 0.390625 12.265625 0.390625 Z M 12.265625 0.390625 "/></g></g><g style="fill:#8c52ff;fill-opacity:1;"><g transform="translate(137.695184, 33.442748)"><path style="stroke:none" d="M 12.265625 0.390625 C 10.703125 0.390625 9.222656 0.113281 7.828125 -0.4375 C 6.441406 -1 5.253906 -1.757812 4.265625 -2.71875 C 3.285156 -3.6875 2.507812 -4.847656 1.9375 -6.203125 C 1.363281 -7.554688 1.078125 -9 1.078125 -10.53125 C 1.078125 -12.5625 1.566406 -14.410156 2.546875 -16.078125 C 3.523438 -17.753906 4.867188 -19.066406 6.578125 -20.015625 C 8.296875 -20.972656 10.191406 -21.453125 12.265625 -21.453125 C 15.015625 -21.453125 17.445312 -20.609375 19.5625 -18.921875 C 19.945312 -18.597656 20.140625 -18.238281 20.140625 -17.84375 C 20.140625 -17.457031 19.945312 -17.09375 19.5625 -16.75 L 18.046875 -15.359375 C 17.660156 -15.046875 17.3125 -14.898438 17 -14.921875 C 16.6875 -14.941406 16.3125 -15.085938 15.875 -15.359375 C 14.769531 -16.046875 13.632812 -16.390625 12.46875 -16.390625 C 10.863281 -16.390625 9.507812 -15.828125 8.40625 -14.703125 C 7.3125 -13.578125 6.765625 -12.175781 6.765625 -10.5 C 6.765625 -8.726562 7.320312 -7.28125 8.4375 -6.15625 C 9.550781 -5.03125 10.941406 -4.46875 12.609375 -4.46875 C 13.671875 -4.46875 14.800781 -4.726562 16 -5.25 L 16 -8 L 13.46875 -8 C 13.007812 -8 12.644531 -8.128906 12.375 -8.390625 C 12.113281 -8.660156 11.984375 -9.023438 11.984375 -9.484375 L 11.984375 -10.625 C 11.984375 -11.09375 12.113281 -11.457031 12.375 -11.71875 C 12.644531 -11.976562 13.007812 -12.109375 13.46875 -12.109375 L 19.5 -12.109375 C 19.96875 -12.109375 20.332031 -11.976562 20.59375 -11.71875 C 20.851562 -11.457031 20.984375 -11.082031 20.984375 -10.59375 L 20.984375 -3.5 C 20.984375 -3.039062 20.859375 -2.65625 20.609375 -2.34375 C 20.367188 -2.039062 20.007812 -1.765625 19.53125 -1.515625 C 18.914062 -1.171875 18.332031 -0.878906 17.78125 -0.640625 C 17.238281 -0.398438 16.460938 -0.171875 15.453125 0.046875 C 14.441406 0.273438 13.378906 0.390625 12.265625 0.390625 Z M 12.265625 0.390625 "/></g></g><g style="fill:#8c52ff;fill-opacity:1;"><g transform="translate(161.243494, 33.442748)"><path style="stroke:none" d="M 3.734375 0 C 3.242188 0 2.863281 -0.128906 2.59375 -0.390625 C 2.332031 -0.660156 2.203125 -1.035156 2.203125 -1.515625 L 2.203125 -19.53125 C 2.203125 -20.019531 2.332031 -20.394531 2.59375 -20.65625 C 2.863281 -20.914062 3.242188 -21.046875 3.734375 -21.046875 L 16.359375 -21.046875 C 16.835938 -21.046875 17.207031 -20.914062 17.46875 -20.65625 C 17.738281 -20.40625 17.875 -20.03125 17.875 -19.53125 L 17.875 -17.953125 C 17.875 -17.460938 17.738281 -17.082031 17.46875 -16.8125 C 17.207031 -16.550781 16.835938 -16.421875 16.359375 -16.421875 L 7.90625 -16.421875 L 7.90625 -12.734375 L 14.0625 -12.734375 C 14.539062 -12.734375 14.910156 -12.597656 15.171875 -12.328125 C 15.441406 -12.066406 15.578125 -11.695312 15.578125 -11.21875 L 15.578125 -9.890625 C 15.578125 -9.398438 15.441406 -9.019531 15.171875 -8.75 C 14.910156 -8.476562 14.539062 -8.34375 14.0625 -8.34375 L 7.90625 -8.34375 L 7.90625 -4.640625 L 16.453125 -4.640625 C 16.929688 -4.640625 17.304688 -4.503906 17.578125 -4.234375 C 17.847656 -3.972656 17.984375 -3.597656 17.984375 -3.109375 L 17.984375 -1.515625 C 17.984375 -1.023438 17.847656 -0.648438 17.578125 -0.390625 C 17.304688 -0.128906 16.929688 0 16.453125 0 Z M 3.734375 0 "/></g></g><g style="fill:#8c52ff;fill-opacity:1;"><g transform="translate(181.48579, 33.442748)"><path style="stroke:none" d="M 15.796875 -8.40625 L 19.625 -1.515625 C 19.863281 -1.023438 19.882812 -0.648438 19.6875 -0.390625 C 19.5 -0.128906 19.144531 0 18.625 0 L 15.328125 0 C 15.003906 0 14.734375 -0.0625 14.515625 -0.1875 C 14.296875 -0.3125 14.128906 -0.457031 14.015625 -0.625 C 13.898438 -0.789062 13.726562 -1.078125 13.5 -1.484375 L 10.109375 -7.640625 L 7.90625 -7.640625 L 7.90625 -1.515625 C 7.90625 -1.035156 7.769531 -0.660156 7.5 -0.390625 C 7.226562 -0.128906 6.851562 0 6.375 0 L 3.734375 0 C 3.242188 0 2.863281 -0.128906 2.59375 -0.390625 C 2.332031 -0.660156 2.203125 -1.035156 2.203125 -1.515625 L 2.203125 -19.53125 C 2.203125 -20.019531 2.332031 -20.394531 2.59375 -20.65625 C 2.863281 -20.914062 3.242188 -21.046875 3.734375 -21.046875 L 11.5625 -21.046875 C 14.226562 -21.046875 16.28125 -20.4375 17.71875 -19.21875 C 19.15625 -18.007812 19.875 -16.332031 19.875 -14.1875 C 19.875 -12.8125 19.507812 -11.628906 18.78125 -10.640625 C 18.0625 -9.648438 17.066406 -8.90625 15.796875 -8.40625 Z M 7.90625 -16.421875 L 7.90625 -11.46875 L 11.46875 -11.46875 C 12.21875 -11.46875 12.84375 -11.6875 13.34375 -12.125 C 13.84375 -12.5625 14.09375 -13.15625 14.09375 -13.90625 C 14.09375 -14.675781 13.84375 -15.285156 13.34375 -15.734375 C 12.84375 -16.191406 12.21875 -16.421875 11.46875 -16.421875 Z M 7.90625 -16.421875 "/></g></g></g></g></g><g clip-rule="nonzero" clip-path="url(#ac2c80f10b)"><g transform="matrix(1,0,0,1,0.000000000000000167,0.000000000000013659)"><g clip-path="url(#1a9975089e)"><g style="fill:#8c52ff;fill-opacity:1;"><g transform="translate(0.498678, 90.716034)"><path style="stroke:none" d="M 77.125 -16.046875 L 77.125 0 L 10.25 0 L 10.25 -86.390625 L 75.53125 -86.390625 L 75.53125 -70.34375 L 30.109375 -70.34375 L 30.109375 -51.578125 L 70.21875 -51.578125 L 70.21875 -36.03125 L 30.109375 -36.03125 L 30.109375 -16.046875 Z M 77.125 -16.046875 "/></g></g></g></g></g><g clip-rule="nonzero" clip-path="url(#ea47ab3e5c)"><g transform="matrix(1,0,0,1,287,57)"><g clip-path="url(#8705672be4)"><g style="fill:#b4b4b4;fill-opacity:1;"><g transform="translate(0.247141, 33.442748)"><path style="stroke:none" d="M 4.4375 0.390625 C 3.5 0.390625 2.703125 0.0625 2.046875 -0.59375 C 1.398438 -1.25 1.078125 -2.039062 1.078125 -2.96875 C 1.078125 -3.894531 1.398438 -4.6875 2.046875 -5.34375 C 2.703125 -6.007812 3.5 -6.34375 4.4375 -6.34375 C 5.375 -6.34375 6.171875 -6.007812 6.828125 -5.34375 C 7.484375 -4.6875 7.8125 -3.894531 7.8125 -2.96875 C 7.8125 -2.039062 7.484375 -1.25 6.828125 -0.59375 C 6.171875 0.0625 5.375 0.390625 4.4375 0.390625 Z M 4.4375 0.390625 "/></g></g><g style="fill:#b4b4b4;fill-opacity:1;"><g transform="translate(10.223391, 33.442748)"><path style="stroke:none" d="M 9.78125 0.421875 C 7.226562 0.421875 5.113281 -0.378906 3.4375 -1.984375 C 1.769531 -3.597656 0.9375 -5.632812 0.9375 -8.09375 C 0.9375 -10.550781 1.769531 -12.585938 3.4375 -14.203125 C 5.113281 -15.816406 7.226562 -16.625 9.78125 -16.625 C 12.34375 -16.625 14.484375 -15.78125 16.203125 -14.09375 C 16.734375 -13.519531 16.71875 -12.957031 16.15625 -12.40625 L 14.4375 -10.6875 C 14.175781 -10.445312 13.929688 -10.316406 13.703125 -10.296875 C 13.472656 -10.285156 13.160156 -10.4375 12.765625 -10.75 C 11.984375 -11.46875 11.066406 -11.828125 10.015625 -11.828125 C 8.984375 -11.828125 8.132812 -11.472656 7.46875 -10.765625 C 6.8125 -10.054688 6.484375 -9.164062 6.484375 -8.09375 C 6.484375 -7.019531 6.8125 -6.125 7.46875 -5.40625 C 8.125 -4.6875 8.972656 -4.328125 10.015625 -4.328125 C 11.046875 -4.328125 11.960938 -4.695312 12.765625 -5.4375 C 13.160156 -5.757812 13.472656 -5.910156 13.703125 -5.890625 C 13.929688 -5.878906 14.175781 -5.75 14.4375 -5.5 L 16.15625 -3.796875 C 16.71875 -3.234375 16.734375 -2.671875 16.203125 -2.109375 C 14.484375 -0.421875 12.34375 0.421875 9.78125 0.421875 Z M 9.78125 0.421875 "/></g></g><g style="fill:#b4b4b4;fill-opacity:1;"><g transform="translate(28.551677, 33.442748)"><path style="stroke:none" d="M 9.984375 0.421875 C 7.367188 0.421875 5.207031 -0.382812 3.5 -2 C 1.789062 -3.613281 0.9375 -5.644531 0.9375 -8.09375 C 0.9375 -10.539062 1.789062 -12.570312 3.5 -14.1875 C 5.207031 -15.8125 7.367188 -16.625 9.984375 -16.625 C 11.710938 -16.625 13.265625 -16.253906 14.640625 -15.515625 C 16.015625 -14.773438 17.085938 -13.753906 17.859375 -12.453125 C 18.628906 -11.160156 19.015625 -9.707031 19.015625 -8.09375 C 19.015625 -6.476562 18.628906 -5.019531 17.859375 -3.71875 C 17.085938 -2.425781 16.015625 -1.410156 14.640625 -0.671875 C 13.265625 0.0546875 11.710938 0.421875 9.984375 0.421875 Z M 7.453125 -5.421875 C 8.128906 -4.710938 8.972656 -4.359375 9.984375 -4.359375 C 10.992188 -4.359375 11.828125 -4.710938 12.484375 -5.421875 C 13.140625 -6.128906 13.46875 -7.019531 13.46875 -8.09375 C 13.46875 -9.164062 13.140625 -10.054688 12.484375 -10.765625 C 11.828125 -11.472656 10.992188 -11.828125 9.984375 -11.828125 C 8.972656 -11.828125 8.128906 -11.472656 7.453125 -10.765625 C 6.785156 -10.054688 6.453125 -9.164062 6.453125 -8.09375 C 6.453125 -7.019531 6.785156 -6.128906 7.453125 -5.421875 Z M 7.453125 -5.421875 "/></g></g><g style="fill:#b4b4b4;fill-opacity:1;"><g transform="translate(49.632339, 33.442748)"><path style="stroke:none" d="M 21.859375 -16.625 C 23.878906 -16.625 25.515625 -15.976562 26.765625 -14.6875 C 28.023438 -13.40625 28.65625 -11.691406 28.65625 -9.546875 L 28.65625 -1.484375 C 28.65625 -1.023438 28.53125 -0.660156 28.28125 -0.390625 C 28.03125 -0.128906 27.671875 0 27.203125 0 L 24.515625 0 C 24.046875 0 23.6875 -0.128906 23.4375 -0.390625 C 23.1875 -0.660156 23.0625 -1.023438 23.0625 -1.484375 L 23.0625 -9.140625 C 23.0625 -9.972656 22.84375 -10.632812 22.40625 -11.125 C 21.976562 -11.613281 21.378906 -11.859375 20.609375 -11.859375 C 19.847656 -11.859375 19.234375 -11.609375 18.765625 -11.109375 C 18.304688 -10.617188 18.078125 -9.960938 18.078125 -9.140625 L 18.078125 -1.484375 C 18.078125 -1.023438 17.945312 -0.660156 17.6875 -0.390625 C 17.4375 -0.128906 17.082031 0 16.625 0 L 13.9375 0 C 13.46875 0 13.101562 -0.128906 12.84375 -0.390625 C 12.59375 -0.660156 12.46875 -1.023438 12.46875 -1.484375 L 12.46875 -9.140625 C 12.46875 -9.972656 12.25 -10.632812 11.8125 -11.125 C 11.382812 -11.613281 10.785156 -11.859375 10.015625 -11.859375 C 9.253906 -11.859375 8.640625 -11.609375 8.171875 -11.109375 C 7.710938 -10.617188 7.484375 -9.960938 7.484375 -9.140625 L 7.484375 -1.484375 C 7.484375 -1.023438 7.351562 -0.660156 7.09375 -0.390625 C 6.84375 -0.128906 6.488281 0 6.03125 0 L 3.34375 0 C 2.875 0 2.507812 -0.128906 2.25 -0.390625 C 2 -0.660156 1.875 -1.023438 1.875 -1.484375 L 1.875 -14.859375 C 1.875 -15.328125 2 -15.691406 2.25 -15.953125 C 2.507812 -16.222656 2.875 -16.359375 3.34375 -16.359375 L 5.046875 -16.359375 C 5.503906 -16.359375 5.863281 -16.222656 6.125 -15.953125 C 6.382812 -15.691406 6.515625 -15.328125 6.515625 -14.859375 L 6.515625 -14 C 7.753906 -15.75 9.425781 -16.625 11.53125 -16.625 C 13.695312 -16.625 15.382812 -15.875 16.59375 -14.375 C 17.9375 -15.875 19.691406 -16.625 21.859375 -16.625 Z M 21.859375 -16.625 "/></g></g></g></g></g></g></svg>